<?xml version="1.0" encoding="UTF-8"?>
<svg id="Capa_2" data-name="Capa 2" xmlns="http://www.w3.org/2000/svg" xmlns:xlink="http://www.w3.org/1999/xlink" viewBox="0 0 539.87 513.46">
  <defs>
    <style>
      .cls-1 {
        fill: #95c11f;
      }

      .cls-2 {
        fill: url(#Degradado_sin_nombre_63);
      }

      .cls-3 {
        fill: url(#Degradado_sin_nombre_63-2);
      }
    </style>
    <linearGradient id="Degradado_sin_nombre_63" data-name="Degradado sin nombre 63" x1="0" y1="242.46" x2="142.96" y2="242.46" gradientUnits="userSpaceOnUse">
      <stop offset=".12" stop-color="#063"/>
      <stop offset="1" stop-color="#95c11f"/>
    </linearGradient>
    <linearGradient id="Degradado_sin_nombre_63-2" data-name="Degradado sin nombre 63" x1="38.92" y1="256.73" x2="539.87" y2="256.73" xlink:href="#Degradado_sin_nombre_63"/>
  </defs>
  <g id="Capa_2-2" data-name="Capa 2">
    <g>
      <path class="cls-2" d="M71.12,404.68c-31.67-17.44-57.45-50.02-65.89-84.45-21.49-87.67,28.75-234.32,51.09-239.79,12.09-2.96,50.51,26.92,86.64,68.86-4.04,3.7-8.03,7.51-11.97,11.45-30.11,30.11-52.71,71.55-63.64,116.69-10.74,44.35-9.39,89.32,3.77,127.24Z"/>
      <path class="cls-3" d="M402.11,431.86c-40.67,40.67-102.79,65-161.77,65-44.03,0-86.31-13.55-116.61-43.99l-47.03,53.29c-4.29,4.85-10.24,7.3-16.2,7.3-5.51,0-11.03-2.09-15.26-6.32-8.43-8.44-8.43-22.1,0-30.54l55.11-55.1,4.77-4.77,60.23-60.22,45.04-45.04c1.54.38,3.13.62,4.78.67.24,0,.48,0,.72,0,3.32,0,6.46-.73,9.28-2.04l53.34,53.34c-.62,2.04-.95,4.2-.95,6.44,0,12.19,9.89,22.07,22.08,22.07s22.07-9.88,22.07-22.07c0-6.72-3-12.74-7.74-16.78l43.92-195.46c1.5-.27,2.94-.7,4.32-1.27l34.04,37.71c-.73,2.18-1.12,4.52-1.12,6.95,0,12.19,9.88,22.07,22.07,22.07s22.07-9.88,22.07-22.07c0-3.84-.98-7.45-2.7-10.59l41.2-68.32,22.97,20.6,10.75-90.83-79.11,45.91,28.73,13.23-41.08,68.11c-.93-.12-1.87-.18-2.83-.18-2.34,0-4.6.37-6.72,1.04l-35.16-38.96c.39-1.63.59-3.34.59-5.09,0-12.19-9.89-22.08-22.07-22.08-.97,0-1.93.06-2.87.19-1.37.17-2.71.48-3.99.9-8.84,2.89-15.22,11.2-15.22,20.99,0,6.32,2.65,12.01,6.91,16.02l-44.13,196.44-.51,2.26-56.46-56.46c.26-1.34.39-2.72.39-4.14,0-12.19-9.88-22.07-22.07-22.07-1.25,0-2.47.1-3.65.3-10.45,1.74-18.42,10.82-18.42,21.77,0,2.87.55,5.61,1.55,8.12l-103.91,103.91c-27.66-73.31-2.68-170.86,53.68-227.22,3.51-3.51,7.03-6.89,10.58-10.13C261.94,67.26,384.11,81.44,537.07,0c0,0,34,262.9-134.96,431.86Z"/>
      <path class="cls-1" d="M156.87,423.01c9.4,7.26,18.11,13.34,28.88,18.35,22.24,10.26,46.47,16.21,71,16.99,8.9.4,18.79-.29,27.7-1.27,1.5-.26,10.1-1.61,11.47-1.84,3.28-.74,8.07-1.85,11.35-2.6,2.21-.66,6.74-1.99,8.95-2.66,4.28-1.18,11.26-3.99,15.43-5.53,4.83-2.25,10.26-4.35,14.94-6.9,0,0,8.35-4.38,8.35-4.38,2.64-1.35,5.58-3.36,8.12-4.83,21.55-13.14,41.2-29.57,58.93-47.86l.43.39c-53.64,63-125.41,103.39-210.06,86.46-16.21-3.32-32.26-8.58-47.22-15.67-7.48-3.53-14.18-8.08-21.06-12.72,0,0-.66-.47-.66-.47,0,0,13.46-15.45,13.46-15.45h0Z"/>
    </g>
  </g>
</svg>