<?xml version="1.0" encoding="UTF-8"?>
<svg id="Capa_2" data-name="Capa 2" xmlns="http://www.w3.org/2000/svg" viewBox="0 0 2188.44 513.46">
  <defs>
    <style>
      .cls-1 {
        fill: #fff;
      }

      .cls-2 {
        fill: #b2db33;
      }
    </style>
  </defs>
  <g id="Capa_2-2" data-name="Capa 2">
    <g>
      <path class="cls-1" d="M654.66,373.91c-6.39,0-11.59-1.49-15.58-4.45-4-2.96-6.5-6.96-7.53-11.98-1.03-5.02-.06-10.61,2.91-16.78l87.65-192.07c3.65-7.76,7.99-13.41,13.01-16.95s10.84-5.31,17.46-5.31,12.44,1.77,17.46,5.31,9.24,9.19,12.67,16.95l88.33,192.07c2.96,6.16,4.05,11.81,3.25,16.95s-3.14,9.13-7.02,11.98-8.9,4.28-15.06,4.28c-7.76,0-13.75-1.83-17.97-5.48-4.23-3.65-7.93-9.36-11.13-17.12l-20.54-47.59,21.23,14.72h-142.77l21.23-14.72-20.2,47.59c-3.42,7.99-7.02,13.75-10.78,17.29-3.77,3.54-9.3,5.31-16.6,5.31h-.02ZM751.9,185.95l-43.82,104.42-9.24-13.35h107.16l-9.24,13.35-44.16-104.42h-.7Z"/>
      <path class="cls-1" d="M980.25,436.22c-12.32,0-24.14-1.03-35.43-3.08-11.3-2.06-21.29-5.14-29.96-9.24-5.25-2.28-8.96-5.25-11.13-8.9-2.17-3.66-3.08-7.53-2.74-11.64s1.71-7.76,4.11-10.96c2.4-3.2,5.42-5.42,9.07-6.68,3.65-1.26,7.53-.97,11.64.86,10.04,4.56,19.34,7.53,27.9,8.9s15.92,2.06,22.08,2.06c14.6,0,25.56-3.31,32.87-9.93,7.3-6.62,10.95-16.78,10.95-30.47v-26.02h3.08c-3.42,10.5-10.5,19.06-21.23,25.68s-22.59,9.93-35.6,9.93c-15.06,0-28.19-3.48-39.37-10.44-11.19-6.96-19.86-16.78-26.02-29.44-6.16-12.67-9.24-27.33-9.24-43.99,0-12.55,1.76-23.97,5.31-34.24,3.54-10.27,8.56-19.05,15.06-26.36,6.5-7.3,14.38-12.95,23.62-16.95,9.24-3.99,19.45-5.99,30.64-5.99,13.46,0,25.39,3.25,35.78,9.76,10.38,6.5,17.29,15.01,20.71,25.51l-3.42,10.96v-19.52c0-8.44,2.23-14.89,6.68-19.34s10.78-6.68,19-6.68,14.49,2.22,18.83,6.68c4.33,4.45,6.5,10.9,6.5,19.34v125.31c0,28.07-7.7,49.24-23.11,63.51-15.41,14.26-37.61,21.4-66.59,21.4v-.03ZM981.28,328.04c7.76,0,14.43-1.82,20.03-5.48,5.59-3.65,9.98-8.84,13.18-15.58,3.19-6.73,4.79-14.77,4.79-24.13,0-14.15-3.48-25.16-10.44-33.04s-16.15-11.81-27.56-11.81c-7.76,0-14.5,1.77-20.2,5.31-5.71,3.54-10.1,8.68-13.18,15.41s-4.62,14.78-4.62,24.14c0,14.15,3.42,25.22,10.27,33.21,6.85,7.99,16.09,11.98,27.73,11.98h0Z"/>
      <path class="cls-1" d="M1136.71,373.91c-8.68,0-15.3-2.28-19.86-6.85-4.57-4.56-6.85-11.07-6.85-19.52v-121.54c0-8.44,2.22-14.89,6.68-19.34,4.45-4.45,10.67-6.68,18.66-6.68s14.49,2.22,18.83,6.68c4.33,4.45,6.51,10.9,6.51,19.34v17.8h-3.42c2.74-13.7,8.78-24.31,18.15-31.84,9.36-7.53,21.45-11.75,36.29-12.67,5.7-.46,10.1.97,13.18,4.28,3.08,3.31,4.73,8.73,4.96,16.26.45,7.08-.98,12.67-4.28,16.78-3.31,4.11-8.85,6.62-16.6,7.53l-7.87.69c-13.01,1.14-22.66,4.91-28.93,11.3-6.28,6.39-9.42,15.64-9.42,27.73v63.68c0,8.45-2.22,14.95-6.68,19.52-4.45,4.56-10.9,6.85-19.34,6.85h-.01Z"/>
      <path class="cls-1" d="M1328.78,374.6c-18.03,0-33.72-3.54-47.08-10.61s-23.68-17.23-30.98-30.47c-7.31-13.23-10.96-28.87-10.96-46.9,0-13.46,2.05-25.56,6.16-36.29,4.11-10.73,10.1-19.91,17.98-27.56,7.87-7.64,17.29-13.46,28.24-17.46,10.96-3.99,23.16-5.99,36.63-5.99,18.03,0,33.72,3.54,47.08,10.61,13.35,7.08,23.74,17.12,31.15,30.13,7.42,13.01,11.13,28.53,11.13,46.56,0,13.69-2.11,25.91-6.33,36.63-4.23,10.73-10.22,19.97-17.98,27.73s-17.18,13.64-28.24,17.63c-11.08,3.99-23.34,5.99-36.81,5.99h0ZM1328.78,335.91c7.53,0,14.04-1.82,19.51-5.48,5.48-3.65,9.81-9.07,13.01-16.26,3.19-7.19,4.79-16.38,4.79-27.56,0-16.66-3.42-28.93-10.27-36.8-6.85-7.88-15.87-11.81-27.05-11.81-7.31,0-13.75,1.71-19.34,5.14-5.6,3.42-9.93,8.73-13.01,15.92-3.08,7.19-4.62,16.38-4.62,27.56,0,16.66,3.42,29.05,10.27,37.15s15.75,12.15,26.71,12.15h0Z"/>
      <g>
        <path class="cls-2" d="M71.12,404.68c-31.67-17.44-57.45-50.02-65.89-84.45-21.49-87.67,28.75-234.32,51.09-239.79,12.09-2.96,50.51,26.92,86.64,68.86-4.04,3.7-8.03,7.51-11.97,11.45-30.11,30.11-52.71,71.55-63.64,116.69-10.74,44.35-9.39,89.32,3.77,127.24Z"/>
        <path class="cls-2" d="M402.11,431.86c-40.67,40.67-102.79,65-161.77,65-44.03,0-86.31-13.55-116.61-43.99l-47.03,53.29c-4.29,4.85-10.24,7.3-16.2,7.3-5.51,0-11.03-2.09-15.26-6.32-8.43-8.44-8.43-22.1,0-30.54l55.11-55.1,4.77-4.77,60.23-60.22,45.04-45.04c1.54.38,3.13.62,4.78.67h.72c3.32,0,6.46-.73,9.28-2.04l53.34,53.34c-.62,2.04-.95,4.2-.95,6.44,0,12.19,9.89,22.07,22.08,22.07s22.07-9.88,22.07-22.07c0-6.72-3-12.74-7.74-16.78l43.92-195.46c1.5-.27,2.94-.7,4.32-1.27l34.04,37.71c-.73,2.18-1.12,4.52-1.12,6.95,0,12.19,9.88,22.07,22.07,22.07s22.07-9.88,22.07-22.07c0-3.84-.98-7.45-2.7-10.59l41.2-68.32,22.97,20.6,10.75-90.83-79.11,45.91,28.73,13.23-41.08,68.11c-.93-.12-1.87-.18-2.83-.18-2.34,0-4.6.37-6.72,1.04l-35.16-38.96c.39-1.63.59-3.34.59-5.09,0-12.19-9.89-22.08-22.07-22.08-.97,0-1.93.06-2.87.19-1.37.17-2.71.48-3.99.9-8.84,2.89-15.22,11.2-15.22,20.99,0,6.32,2.65,12.01,6.91,16.02l-44.13,196.44-.51,2.26-56.46-56.46c.26-1.34.39-2.72.39-4.14,0-12.19-9.88-22.07-22.07-22.07-1.25,0-2.47.1-3.65.3-10.45,1.74-18.42,10.82-18.42,21.77,0,2.87.55,5.61,1.55,8.12l-103.91,103.91c-27.66-73.31-2.68-170.86,53.68-227.22,3.51-3.51,7.03-6.89,10.58-10.13C261.94,67.26,384.11,81.44,537.07,0c0,0,34,262.9-134.96,431.86Z"/>
        <g>
          <path class="cls-2" d="M1538.3,373.91c-8.68,0-15.3-2.4-19.86-7.19-4.57-4.79-6.85-11.52-6.85-20.2v-173.24h-60.6c-7.08,0-12.55-1.94-16.43-5.82s-5.82-9.24-5.82-16.09,1.94-12.5,5.82-16.26c3.88-3.77,9.36-5.65,16.43-5.65h174.26c7.07,0,12.55,1.88,16.43,5.65,3.88,3.77,5.82,9.19,5.82,16.26s-1.94,12.21-5.82,16.09c-3.88,3.88-9.36,5.82-16.43,5.82h-60.6v173.24c0,8.68-2.23,15.41-6.68,20.2-4.45,4.79-11.02,7.19-19.69,7.19h.02Z"/>
          <path class="cls-2" d="M1726.25,374.6c-19.86,0-36.92-3.59-51.18-10.78-14.27-7.19-25.22-17.34-32.87-30.47-7.65-13.12-11.47-28.59-11.47-46.39s3.65-32.58,10.96-45.71c7.3-13.12,17.51-23.39,30.64-30.81,13.12-7.41,28.01-11.13,44.68-11.13,12.1,0,23.05,2,32.87,5.99,9.81,4,18.26,9.7,25.33,17.12s12.44,16.43,16.09,27.05c3.65,10.61,5.48,22.43,5.48,35.43,0,4.34-1.37,7.59-4.11,9.76s-6.74,3.25-11.98,3.25h-107.5v-26.7h86.28l-5.48,4.79c0-9.36-1.37-17.17-4.11-23.45-2.74-6.27-6.68-11.01-11.81-14.21-5.14-3.19-11.47-4.79-19-4.79-8.45,0-15.64,1.94-21.57,5.82-5.94,3.88-10.5,9.48-13.69,16.78-3.2,7.31-4.79,16.09-4.79,26.36v2.74c0,17.35,4.05,30.13,12.16,38.34,8.1,8.22,20.14,12.32,36.12,12.32,5.48,0,11.75-.68,18.83-2.05,7.07-1.37,13.7-3.54,19.86-6.5,5.25-2.51,9.93-3.36,14.04-2.57,4.11.8,7.3,2.68,9.59,5.65,2.28,2.97,3.59,6.39,3.94,10.27.34,3.88-.51,7.7-2.57,11.47-2.06,3.77-5.48,6.91-10.27,9.41-7.76,4.34-16.49,7.59-26.19,9.76s-19.12,3.25-28.25,3.25h-.03Z"/>
          <path class="cls-2" d="M1852.93,373.91c-8.45,0-14.89-2.28-19.34-6.85-4.45-4.56-6.68-11.07-6.68-19.52v-121.54c0-8.44,2.22-14.89,6.68-19.34,4.45-4.45,10.67-6.68,18.66-6.68s14.49,2.22,18.83,6.68c4.33,4.45,6.51,10.9,6.51,19.34v19.52l-3.77-11.3c5.25-11.18,13.06-19.8,23.45-25.85,10.38-6.04,22.19-9.07,35.43-9.07s24.53,2.57,33.21,7.7c8.67,5.14,15.17,12.9,19.51,23.28,4.33,10.39,6.5,23.57,6.5,39.54v77.72c0,8.45-2.22,14.95-6.68,19.52-4.45,4.56-10.9,6.85-19.34,6.85s-14.55-2.28-19-6.85c-4.45-4.56-6.68-11.07-6.68-19.52v-75.32c0-11.64-2.11-20.03-6.34-25.16-4.23-5.14-10.67-7.7-19.34-7.7-10.96,0-19.69,3.42-26.19,10.27-6.51,6.85-9.76,15.98-9.76,27.39v70.53c0,17.58-8.56,26.36-25.68,26.36h.02Z"/>
          <path class="cls-2" d="M2117.91,374.6c-19.86,0-36.92-3.59-51.18-10.78-14.27-7.19-25.22-17.34-32.87-30.47-7.65-13.12-11.47-28.59-11.47-46.39s3.65-32.58,10.96-45.71c7.3-13.12,17.51-23.39,30.64-30.81,13.12-7.41,28.01-11.13,44.68-11.13,12.1,0,23.05,2,32.87,5.99,9.81,4,18.26,9.7,25.33,17.12s12.44,16.43,16.09,27.05c3.65,10.61,5.48,22.43,5.48,35.43,0,4.34-1.37,7.59-4.11,9.76s-6.74,3.25-11.98,3.25h-107.5v-26.7h86.28l-5.48,4.79c0-9.36-1.37-17.17-4.11-23.45-2.74-6.27-6.68-11.01-11.81-14.21-5.14-3.19-11.47-4.79-19-4.79-8.45,0-15.64,1.94-21.57,5.82-5.94,3.88-10.5,9.48-13.69,16.78-3.2,7.31-4.79,16.09-4.79,26.36v2.74c0,17.35,4.05,30.13,12.16,38.34,8.1,8.22,20.14,12.32,36.12,12.32,5.48,0,11.75-.68,18.83-2.05,7.07-1.37,13.7-3.54,19.86-6.5,5.25-2.51,9.93-3.36,14.04-2.57,4.11.8,7.3,2.68,9.59,5.65,2.28,2.97,3.59,6.39,3.94,10.27.34,3.88-.51,7.7-2.57,11.47s-5.48,6.91-10.27,9.41c-7.76,4.34-16.49,7.59-26.19,9.76s-19.12,3.25-28.25,3.25h-.03Z"/>
        </g>
      </g>
    </g>
  </g>
</svg>